<svg width="66" height="66" viewBox="0 0 66 66" fill="none" xmlns="http://www.w3.org/2000/svg">
<g filter="url(#filter0_d_174_179)">
<circle cx="33" cy="29" r="24" fill="white"/>
<circle cx="33" cy="29" r="24" stroke="#2B7FFF"/>
</g>
<path d="M31.998 23.0542C31.7611 22.8174 31.4399 22.6843 31.105 22.6843C30.77 22.6843 30.4488 22.8174 30.2119 23.0542L24.5277 28.7384C24.2909 28.9752 24.1579 29.2965 24.1579 29.6314C24.1579 29.9664 24.2909 30.2876 24.5277 30.5245L30.2119 36.2087C30.4501 36.4388 30.7692 36.5661 31.1004 36.5632C31.4316 36.5603 31.7484 36.4275 31.9826 36.1933C32.2168 35.9591 32.3497 35.6423 32.3525 35.3111C32.3554 34.9799 32.2281 34.6608 31.998 34.4226L28.5786 30.8946H40.5786C40.9136 30.8946 41.2349 30.7615 41.4718 30.5246C41.7087 30.2877 41.8418 29.9664 41.8418 29.6314C41.8418 29.2964 41.7087 28.9751 41.4718 28.7382C41.2349 28.5013 40.9136 28.3683 40.5786 28.3683H28.5786L31.998 24.8403C32.2348 24.6034 32.3678 24.2822 32.3678 23.9472C32.3678 23.6123 32.2348 23.291 31.998 23.0542Z" fill="#155DFC"/>
<defs>
<filter id="filter0_d_174_179" x="0.5" y="0.5" width="65" height="65" filterUnits="userSpaceOnUse" color-interpolation-filters="sRGB">
<feFlood flood-opacity="0" result="BackgroundImageFix"/>
<feColorMatrix in="SourceAlpha" type="matrix" values="0 0 0 0 0 0 0 0 0 0 0 0 0 0 0 0 0 0 127 0" result="hardAlpha"/>
<feOffset dy="4"/>
<feGaussianBlur stdDeviation="4"/>
<feComposite in2="hardAlpha" operator="out"/>
<feColorMatrix type="matrix" values="0 0 0 0 0 0 0 0 0 0 0 0 0 0 0 0 0 0 0.12 0"/>
<feBlend mode="normal" in2="BackgroundImageFix" result="effect1_dropShadow_174_179"/>
<feBlend mode="normal" in="SourceGraphic" in2="effect1_dropShadow_174_179" result="shape"/>
</filter>
</defs>
</svg>
